<svg xmlns="http://www.w3.org/2000/svg" xmlns:xlink="http://www.w3.org/1999/xlink" viewBox="0 0 48 60" version="1.1" x="0px" y="0px"><path d="M3.99683887,8 C3.99877694,8 3.9996451,8.00025657 4,8.0003898 C4.00024276,8.00048093 3.99918905,8.000351 3.99683887,8 Z M24.0031611,20 C24.0012231,20 24.0003549,19.9997434 24,19.9996102 C23.9997572,19.9995191 24.0008109,19.999649 24.0031611,20 Z M12,26.4719238 L18.4513148,31.6909761 C19.3022118,32.3793436 20,32.0510545 20,30.9497383 L20,24 L24.0031611,24 C26.2058797,24 28,22.2094838 28,20.00077 L28,7.99922997 C28,5.79246765 26.2105543,4 24.0031611,4 L3.99683887,4 C1.79412025,4 0,5.79051625 0,7.99922997 L0,12 L4.00002895,12 C4.00004273,9.33326192 4.00005733,7.99992858 4.00007274,8 L24,8 L23.9999273,20 L16,20 L16,24.5628445 L12,21.3268826 L12,26.4719238 Z" fill="#000000" fill-rule="nonzero" transform="translate(14.000000, 18.025310) scale(-1, 1) translate(-14.000000, -18.025310) "/><path d="M23.9968389,20 C23.9987769,20 23.9996451,20.0002566 24,20.0003898 C24.0002428,20.0004809 23.9991891,20.000351 23.9968389,20 Z M44.0031611,32 C44.0012231,32 44.0003549,31.9997434 44,31.9996102 C43.9997572,31.9995191 44.0008109,31.999649 44.0031611,32 Z M44,20 L24.0000727,20 C24.000046,19.9998763 24.0000218,23.9998763 24,32 L30.3598292,32 L36,36.5628445 L36,32 L43.9999273,32 L44,20 Z M40,36 L40,42.9497383 C40,44.0510545 39.3022118,44.3793436 38.4513148,43.6909761 L28.944434,36 L23.9968389,36 C21.7894457,36 20,34.2075324 20,32.00077 L20,19.99923 C20,17.7905162 21.7941203,16 23.9968389,16 L44.0031611,16 C46.2105543,16 48,17.7924676 48,19.99923 L48,32.00077 C48,34.2094838 46.2058797,36 44.0031611,36 L40,36 Z" fill="#000000" fill-rule="nonzero"/><text x="0" y="63" fill="#000000" font-size="5px" font-weight="bold" font-family="'Helvetica Neue', Helvetica, Arial-Unicode, Arial, Sans-serif">Created by Kevin Eichhorn</text><text x="0" y="68" fill="#000000" font-size="5px" font-weight="bold" font-family="'Helvetica Neue', Helvetica, Arial-Unicode, Arial, Sans-serif">from the Noun Project</text></svg>